CddbId:e5121921:[150, 10909, 19670, 35130, 45453, 63431, 69808, 78291, 87258, 99995, 110027, 118420, 129824, 138586, 146445, 155517, 166830, 173581, 188845, 201185, 208414, 232131, 244935, 259063, 277000, 283429, 293245, 301071, 310379, 315927, 325257, 332544, 338150]:347625:74:e5121921 33 150 10909 19670 35130 45453 63431 69808 78291 87258 99995 110027 118420 129824 138586 146445 155517 166830 173581 188845 201185 208414 232131 244935 259063 277000 283429 293245 301071 310379 315927 325257 332544 338150 4635: 33 0 0 0 0 0 0 0 0 0 0 0 0 0 0 0 0 0 0 0 0 0 0 0 0 0 0 0 0 0 0 0 0 0 4635
num_tracks: 33
offsets: [150, 10909, 19670, 35130, 45453, 63431, 69808, 78291, 87258, 99995, 110027, 118420, 129824, 138586, 146445, 155517, 166830, 173581, 188845, 201185, 208414, 232131, 244935, 259063, 277000, 283429, 293245, 301071, 310379, 315927, 325257, 332544, 338150]
extents: [0, 0, 0, 0, 0, 0, 0, 0, 0, 0, 0, 0, 0, 0, 0, 0, 0, 0, 0, 0, 0, 0, 0, 0, 0, 0, 0, 0, 0, 0, 0, 0, 0]
total_length: 4635
cddb: [3843168545, 33, 150, 10909, 19670, 35130, 45453, 63431, 69808, 78291, 87258, 99995, 110027, 118420, 129824, 138586, 146445, 155517, 166830, 173581, 188845, 201185, 208414, 232131, 244935, 259063, 277000, 283429, 293245, 301071, 310379, 315927, 325257, 332544, 338150, 4635]
musicbrainz: ('33 150 10909 19670 35130 45453 63431 69808 78291 87258 99995 110027 118420 129824 138586 146445 155517 166830 173581 188845 201185 208414 232131 244935 259063 277000 283429 293245 301071 310379 315927 325257 332544 338150 347674', 'LEsLIgqgLkQDq1.exca2M3mQgmg-')

CD record:
Device type    : Removable CD-ROM
Version        : 0
Response Format: 1
Vendor_info    : 'SAMSUNG '
Identification : 'CD-ROM SC-148A  '
Revision       : 'B403'
Device seems to be: Generic mmc CD-ROM.
Using generic SCSI-3/mmc   CD-ROM driver (mmc_cd).
Driver flags   : MMC-2 SWABAUDIO 
Supported modes: 
first: 1 last 33
track:   1 lba:         0 (        0) 00:02:00 adr: 1 control: 0 mode: -1
track:   2 lba:     10759 (    43036) 02:25:34 adr: 1 control: 0 mode: -1
track:   3 lba:     19520 (    78080) 04:22:20 adr: 1 control: 0 mode: -1
track:   4 lba:     34980 (   139920) 07:48:30 adr: 1 control: 0 mode: -1
track:   5 lba:     45303 (   181212) 10:06:03 adr: 1 control: 0 mode: -1
track:   6 lba:     63281 (   253124) 14:05:56 adr: 1 control: 0 mode: -1
track:   7 lba:     69658 (   278632) 15:30:58 adr: 1 control: 0 mode: -1
track:   8 lba:     78141 (   312564) 17:23:66 adr: 1 control: 0 mode: -1
track:   9 lba:     87108 (   348432) 19:23:33 adr: 1 control: 0 mode: -1
track:  10 lba:     99845 (   399380) 22:13:20 adr: 1 control: 0 mode: -1
track:  11 lba:    109877 (   439508) 24:27:02 adr: 1 control: 0 mode: -1
track:  12 lba:    118270 (   473080) 26:18:70 adr: 1 control: 0 mode: -1
track:  13 lba:    129674 (   518696) 28:50:74 adr: 1 control: 0 mode: -1
track:  14 lba:    138436 (   553744) 30:47:61 adr: 1 control: 0 mode: -1
track:  15 lba:    146295 (   585180) 32:32:45 adr: 1 control: 0 mode: -1
track:  16 lba:    155367 (   621468) 34:33:42 adr: 1 control: 0 mode: -1
track:  17 lba:    166680 (   666720) 37:04:30 adr: 1 control: 0 mode: -1
track:  18 lba:    173431 (   693724) 38:34:31 adr: 1 control: 0 mode: -1
track:  19 lba:    188695 (   754780) 41:57:70 adr: 1 control: 0 mode: -1
track:  20 lba:    201035 (   804140) 44:42:35 adr: 1 control: 0 mode: -1
track:  21 lba:    208264 (   833056) 46:18:64 adr: 1 control: 0 mode: -1
track:  22 lba:    231981 (   927924) 51:35:06 adr: 1 control: 0 mode: -1
track:  23 lba:    244785 (   979140) 54:25:60 adr: 1 control: 0 mode: -1
track:  24 lba:    258913 (  1035652) 57:34:13 adr: 1 control: 0 mode: -1
track:  25 lba:    276850 (  1107400) 61:33:25 adr: 1 control: 0 mode: -1
track:  26 lba:    283279 (  1133116) 62:59:04 adr: 1 control: 0 mode: -1
track:  27 lba:    293095 (  1172380) 65:09:70 adr: 1 control: 0 mode: -1
track:  28 lba:    300921 (  1203684) 66:54:21 adr: 1 control: 0 mode: -1
track:  29 lba:    310229 (  1240916) 68:58:29 adr: 1 control: 0 mode: -1
track:  30 lba:    315777 (  1263108) 70:12:27 adr: 1 control: 0 mode: -1
track:  31 lba:    325107 (  1300428) 72:16:57 adr: 1 control: 0 mode: -1
track:  32 lba:    332394 (  1329576) 73:53:69 adr: 1 control: 0 mode: -1
track:  33 lba:    338000 (  1352000) 75:08:50 adr: 1 control: 0 mode: -1
track:lout lba:    347524 (  1390096) 77:15:49 adr: 1 control: 0 mode: -1
